{
    "asset" : {
        "generator" : "Khronos glTF Blender I/O v1.1.46",
        "version" : "2.0"
    },
    "scene" : 0,
    "scenes" : [
        {
            "name" : "Scene",
            "nodes" : [
                3
            ]
        }
    ],
    "nodes" : [
        {
            "mesh" : 0,
            "name" : "Object_3"
        },
        {
            "children" : [
                0
            ],
            "name" : "Object_2"
        },
        {
            "children" : [
                1
            ],
            "name" : "Uranus.obj.cleaner.materialmerger.gles"
        },
        {
            "children" : [
                2
            ],
            "name" : "Sketchfab_model"
        }
    ],
    "materials" : [
        {
            "doubleSided" : true,
            "emissiveFactor" : [
                0,
                0,
                0
            ],
            "name" : "moon.003",
            "pbrMetallicRoughness" : {
                "baseColorTexture" : {
                    "index" : 0,
                    "texCoord" : 0
                },
                "metallicFactor" : 0,
                "roughnessFactor" : 0.6000000238418579
            }
        }
    ],
    "meshes" : [
        {
            "name" : "Object_0.005",
            "primitives" : [
                {
                    "attributes" : {
                        "POSITION" : 0,
                        "NORMAL" : 1,
                        "TEXCOORD_0" : 2
                    },
                    "indices" : 3,
                    "material" : 0
                }
            ]
        }
    ],
    "textures" : [
        {
            "source" : 0
        }
    ],
    "images" : [
        {
            "mimeType" : "image/png",
            "name" : "moon_baseColor",
            "uri" : "textures/moon_baseColor.png"
        }
    ],
    "accessors" : [
        {
            "bufferView" : 0,
            "componentType" : 5126,
            "count" : 16554,
            "max" : [
                1.0000005960464478,
                1.0000004768371582,
                1.0000001192092896
            ],
            "min" : [
                -1.0000015497207642,
                -0.9999995827674866,
                -1.0000008344650269
            ],
            "type" : "VEC3"
        },
        {
            "bufferView" : 1,
            "componentType" : 5126,
            "count" : 16554,
            "type" : "VEC3"
        },
        {
            "bufferView" : 2,
            "componentType" : 5126,
            "count" : 16554,
            "type" : "VEC2"
        },
        {
            "bufferView" : 3,
            "componentType" : 5123,
            "count" : 97536,
            "type" : "SCALAR"
        }
    ],
    "bufferViews" : [
        {
            "buffer" : 0,
            "byteLength" : 198648,
            "byteOffset" : 0
        },
        {
            "buffer" : 0,
            "byteLength" : 198648,
            "byteOffset" : 198648
        },
        {
            "buffer" : 0,
            "byteLength" : 132432,
            "byteOffset" : 397296
        },
        {
            "buffer" : 0,
            "byteLength" : 195072,
            "byteOffset" : 529728
        }
    ],
    "buffers" : [
        {
            "byteLength" : 724800,
            "uri" : "scene.bin"
        }
    ]
}
