{
  "accessors": [
    {
      "bufferView": 2,
      "componentType": 5126,
      "count": 65532,
      "max": [
        317.13623046875,
        1134.661376953125,
        491.6531066894531
      ],
      "min": [
        -316.5986328125,
        -473.67498779296875,
        -1061.4051513671875
      ],
      "type": "VEC3"
    },
    {
      "bufferView": 2,
      "byteOffset": 786384,
      "componentType": 5126,
      "count": 65532,
      "max": [
        0.9999982714653015,
        0.9999810457229614,
        0.9999695420265198
      ],
      "min": [
        -0.9999918341636658,
        -0.9999344348907471,
        -0.9999875426292419
      ],
      "type": "VEC3"
    },
    {
      "bufferView": 1,
      "componentType": 5126,
      "count": 65532,
      "max": [
        0.9952700138092041,
        0.9992910027503967
      ],
      "min": [
        0.002833999926224351,
        0.0005009999731555581
      ],
      "type": "VEC2"
    },
    {
      "bufferView": 0,
      "componentType": 5125,
      "count": 358188,
      "type": "SCALAR"
    },
    {
      "bufferView": 2,
      "byteOffset": 1572768,
      "componentType": 5126,
      "count": 43470,
      "max": [
        118.36978149414063,
        1071.7080078125,
        491.67596435546875
      ],
      "min": [
        -311.5132751464844,
        -272.03839111328125,
        -1037.8294677734375
      ],
      "type": "VEC3"
    },
    {
      "bufferView": 2,
      "byteOffset": 2094408,
      "componentType": 5126,
      "count": 43470,
      "max": [
        0.9999958276748657,
        0.9999969005584717,
        0.9999561309814453
      ],
      "min": [
        -0.9999855756759644,
        -0.9940198063850403,
        -0.9999468922615051
      ],
      "type": "VEC3"
    },
    {
      "bufferView": 1,
      "byteOffset": 524256,
      "componentType": 5126,
      "count": 43470,
      "max": [
        0.9618620276451111,
        0.9992910027503967
      ],
      "min": [
        0.0007089999853633344,
        0.016124999150633812
      ],
      "type": "VEC2"
    },
    {
      "bufferView": 0,
      "byteOffset": 1432752,
      "componentType": 5125,
      "count": 240018,
      "type": "SCALAR"
    }
  ],
  "asset": {
    "extras": {
      "author": "Natural History Museum Vienna (https://sketchfab.com/NHMWien)",
      "license": "CC-BY-NC-4.0 (http://creativecommons.org/licenses/by-nc/4.0/)",
      "source": "https://sketchfab.com/3d-models/blue-antelope-nhmw-zoo-mamm-st715-0d5170d9339e4d14bc1f0b2abf06111a",
      "title": "Blue Antelope (NHMW-ZOO-MAMM-ST715)"
    },
    "generator": "Sketchfab-16.64.0",
    "version": "2.0"
  },
  "bufferViews": [
    {
      "buffer": 0,
      "byteLength": 2392824,
      "name": "floatBufferViews",
      "target": 34963
    },
    {
      "buffer": 0,
      "byteLength": 872016,
      "byteOffset": 2392824,
      "byteStride": 8,
      "name": "floatBufferViews",
      "target": 34962
    },
    {
      "buffer": 0,
      "byteLength": 2616048,
      "byteOffset": 3264840,
      "byteStride": 12,
      "name": "floatBufferViews",
      "target": 34962
    }
  ],
  "buffers": [
    {
      "byteLength": 5880888,
      "uri": "scene.bin"
    }
  ],
  "extensionsRequired": [
    "KHR_materials_pbrSpecularGlossiness"
  ],
  "extensionsUsed": [
    "KHR_materials_pbrSpecularGlossiness"
  ],
  "images": [
    {
      "uri": "textures/material_0_diffuse.png"
    }
  ],
  "materials": [
    {
      "doubleSided": true,
      "extensions": {
        "KHR_materials_pbrSpecularGlossiness": {
          "diffuseFactor": [
            1.0,
            1.0,
            1.0,
            1.0
          ],
          "diffuseTexture": {
            "index": 0
          },
          "glossinessFactor": 0.0,
          "specularFactor": [
            0.0,
            0.0,
            0.0
          ]
        }
      },
      "name": "material_0"
    }
  ],
  "meshes": [
    {
      "name": "Object_0",
      "primitives": [
        {
          "attributes": {
            "NORMAL": 1,
            "POSITION": 0,
            "TEXCOORD_0": 2
          },
          "indices": 3,
          "material": 0,
          "mode": 4
        }
      ]
    },
    {
      "name": "Object_1",
      "primitives": [
        {
          "attributes": {
            "NORMAL": 5,
            "POSITION": 4,
            "TEXCOORD_0": 6
          },
          "indices": 7,
          "material": 0,
          "mode": 4
        }
      ]
    }
  ],
  "nodes": [
    {
      "children": [
        1
      ],
      "matrix": [
        0.0011096591688340984,
        5.674743127480342e-05,
        2.052459734417052e-06,
        0.0,
        5.677881891593371e-05,
        -0.0011093923387011928,
        -2.4347893655445982e-05,
        0.0,
        8.057722266712429e-07,
        2.442095901760238e-05,
        -0.0011108424535163086,
        0.0,
        0.0,
        0.0,
        0.0,
        1.0
      ],
      "name": "Sketchfab_model"
    },
    {
      "children": [
        2,
        3
      ],
      "name": "NHMW-Zoo1-MAMM St715_Hippotragus leucophaeus_Blaubock_low res.obj.cleaner.materialmerger.gles"
    },
    {
      "mesh": 0,
      "name": "Object_2"
    },
    {
      "mesh": 1,
      "name": "Object_3"
    }
  ],
  "samplers": [
    {
      "magFilter": 9729,
      "minFilter": 9987,
      "wrapS": 10497,
      "wrapT": 10497
    }
  ],
  "scene": 0,
  "scenes": [
    {
      "name": "Sketchfab_Scene",
      "nodes": [
        0
      ]
    }
  ],
  "textures": [
    {
      "sampler": 0,
      "source": 0
    }
  ]
}
