# Blender v2.81 (sub 16) OBJ File: ''
# www.blender.org
mtllib submeshTest.mtl
o inner_Cube.001
v -0.329264 2.962502 0.658528
v 0.329264 2.962502 0.658528
v 0.000000 2.633239 0.658528
v 0.000000 3.291766 0.658528
v 0.658528 2.962502 0.329264
v 0.658528 2.962502 -0.329264
v 0.658528 2.633239 0.000000
v 0.658528 3.291766 0.000000
v 0.329264 2.962502 -0.658528
v -0.329264 2.962502 -0.658528
v 0.000000 2.633239 -0.658528
v 0.000000 3.291766 -0.658528
v -0.658528 2.962502 -0.329264
v -0.658528 2.962502 0.329264
v -0.658528 2.633239 0.000000
v -0.658528 3.291766 0.000000
v -0.658528 3.291766 0.329264
v -0.658528 2.633239 0.329264
v -0.658528 2.633239 -0.329264
v -0.329264 3.291766 -0.658528
v -0.329264 2.633239 -0.658528
v 0.329264 2.633239 -0.658528
v 0.658528 3.291766 -0.329264
v 0.658528 2.633239 -0.329264
v 0.658528 2.633239 0.329264
v 0.329264 3.291766 0.658528
v 0.329264 2.633239 0.658528
v -0.329264 2.633239 0.658528
v -0.329264 3.291766 0.658528
v 0.658528 3.291766 0.329264
v 0.329264 3.291766 -0.658528
v -0.658528 3.291766 -0.329264
v -1.000000 1.962503 1.000000
v -1.000000 3.962503 1.000000
v -1.000000 1.962503 -1.000000
v -1.000000 3.962503 -1.000000
v 1.000000 1.962503 1.000000
v 1.000000 3.962503 1.000000
v 1.000000 1.962503 -1.000000
v 1.000000 3.962503 -1.000000
v -1.000000 1.962503 0.000000
v -1.000000 2.962503 1.000000
v -1.000000 3.962503 0.000000
v -1.000000 2.962503 -1.000000
v 0.000000 1.962503 -1.000000
v 0.000000 3.962503 -1.000000
v 1.000000 2.962503 -1.000000
v 1.000000 1.962503 0.000000
v 1.000000 3.962503 0.000000
v 1.000000 2.962503 1.000000
v 0.000000 1.962503 1.000000
v 0.000000 3.962503 1.000000
v -1.000000 1.962503 0.500000
v -1.000000 3.462503 1.000000
v -1.000000 3.962503 -0.500000
v -1.000000 2.462503 -1.000000
v -0.500000 1.962503 -1.000000
v 0.500000 3.962503 -1.000000
v 1.000000 2.462503 -1.000000
v 1.000000 1.962503 -0.500000
v 1.000000 3.962503 0.500000
v 1.000000 2.462503 1.000000
v 0.500000 1.962503 1.000000
v -0.500000 3.962503 1.000000
v -1.000000 1.962503 -0.500000
v -1.000000 2.462503 1.000000
v -1.000000 3.962503 0.500000
v -1.000000 3.462503 -1.000000
v 0.500000 1.962503 -1.000000
v -0.500000 3.962503 -1.000000
v 1.000000 3.462503 -1.000000
v 1.000000 1.962503 0.500000
v 1.000000 3.962503 -0.500000
v 1.000000 3.462503 1.000000
v -0.500000 1.962503 1.000000
v 0.500000 3.962503 1.000000
v -0.329264 2.962502 0.658528
v 0.329264 2.962502 0.658528
v 0.000000 2.633239 0.658528
v 0.000000 3.291766 0.658528
v 0.658528 2.962502 0.329264
v 0.658528 2.962502 -0.329264
v 0.658528 2.633239 0.000000
v 0.658528 3.291766 0.000000
v 0.329264 2.962502 -0.658528
v -0.329264 2.962502 -0.658528
v 0.000000 2.633239 -0.658528
v 0.000000 3.291766 -0.658528
v -0.658528 2.962502 -0.329264
v -0.658528 2.962502 0.329264
v -0.658528 2.633239 0.000000
v -0.658528 3.291766 0.000000
v -0.658528 3.291766 0.329264
v -0.658528 2.633239 0.329264
v -0.658528 2.633239 -0.329264
v -0.329264 3.291766 -0.658528
v -0.329264 2.633239 -0.658528
v 0.329264 2.633239 -0.658528
v 0.658528 3.291766 -0.329264
v 0.658528 2.633239 -0.329264
v 0.658528 2.633239 0.329264
v 0.329264 3.291766 0.658528
v 0.329264 2.633239 0.658528
v -0.329264 2.633239 0.658528
v -0.329264 3.291766 0.658528
v 0.658528 3.291766 0.329264
v 0.329264 3.291766 -0.658528
v -0.658528 3.291766 -0.329264
vt 0.562500 0.125000
vt 0.500000 0.187500
vt 0.437500 0.125000
vt 0.562500 0.375000
vt 0.500000 0.437500
vt 0.437500 0.375000
vt 0.562500 0.625000
vt 0.500000 0.687500
vt 0.437500 0.625000
vt 0.562500 0.875000
vt 0.500000 0.937500
vt 0.437500 0.875000
vt 0.437500 0.062500
vt 0.500000 0.062500
vt 0.562500 0.062500
vt 0.562500 0.187500
vt 0.437500 0.187500
vt 0.437500 0.312500
vt 0.500000 0.312500
vt 0.562500 0.312500
vt 0.562500 0.437500
vt 0.437500 0.437500
vt 0.437500 0.562500
vt 0.500000 0.562500
vt 0.562500 0.562500
vt 0.562500 0.687500
vt 0.437500 0.687500
vt 0.437500 0.812500
vt 0.500000 0.812500
vt 0.562500 0.812500
vt 0.562500 0.937500
vt 0.437500 0.937500
vt 0.625000 0.187500
vt 0.562500 0.250000
vt 0.562500 0.187500
vt 0.625000 0.437500
vt 0.562500 0.500000
vt 0.562500 0.437500
vt 0.625000 0.687500
vt 0.562500 0.750000
vt 0.562500 0.687500
vt 0.625000 0.937500
vt 0.562500 1.000000
vt 0.562500 0.937500
vt 0.437500 0.937500
vt 0.500000 1.000000
vt 0.437500 1.000000
vt 0.562500 0.812500
vt 0.625000 0.875000
vt 0.562500 0.875000
vt 0.437500 0.687500
vt 0.500000 0.750000
vt 0.437500 0.750000
vt 0.562500 0.562500
vt 0.625000 0.625000
vt 0.562500 0.625000
vt 0.437500 0.437500
vt 0.500000 0.500000
vt 0.437500 0.500000
vt 0.562500 0.312500
vt 0.625000 0.375000
vt 0.562500 0.375000
vt 0.437500 0.187500
vt 0.500000 0.250000
vt 0.437500 0.250000
vt 0.562500 0.062500
vt 0.625000 0.125000
vt 0.562500 0.125000
vt 0.500000 0.000000
vt 0.500000 0.062500
vt 0.562500 0.000000
vt 0.625000 0.062500
vt 0.437500 0.062500
vt 0.375000 0.125000
vt 0.375000 0.062500
vt 0.437500 0.000000
vt 0.375000 0.000000
vt 0.375000 0.187500
vt 0.375000 0.250000
vt 0.500000 0.312500
vt 0.625000 0.312500
vt 0.437500 0.312500
vt 0.375000 0.375000
vt 0.375000 0.312500
vt 0.375000 0.437500
vt 0.375000 0.500000
vt 0.500000 0.562500
vt 0.625000 0.562500
vt 0.437500 0.562500
vt 0.375000 0.625000
vt 0.375000 0.562500
vt 0.375000 0.687500
vt 0.375000 0.750000
vt 0.500000 0.812500
vt 0.625000 0.812500
vt 0.437500 0.812500
vt 0.375000 0.875000
vt 0.375000 0.812500
vt 0.375000 0.937500
vt 0.375000 1.000000
vt 0.125000 0.625000
vt 0.125000 0.562500
vt 0.187500 0.500000
vt 0.500000 0.937500
vt 0.500000 0.687500
vt 0.500000 0.437500
vt 0.500000 0.187500
vt 0.687500 0.500000
vt 0.625000 0.250000
vt 0.625000 0.500000
vt 0.625000 0.750000
vt 0.625000 1.000000
vt 0.625000 0.000000
vt 0.437500 0.125000
vt 0.437500 0.375000
vt 0.437500 0.625000
vt 0.437500 0.875000
vt 0.312500 0.750000
vt 0.250000 0.750000
vt 0.187500 0.750000
vt 0.125000 0.687500
vt 0.250000 0.500000
vt 0.312500 0.500000
vt 0.125000 0.750000
vt 0.125000 0.500000
vt 0.875000 0.625000
vt 0.875000 0.687500
vt 0.812500 0.750000
vt 0.875000 0.750000
vt 0.750000 0.750000
vt 0.687500 0.750000
vt 0.750000 0.500000
vt 0.812500 0.500000
vt 0.875000 0.500000
vt 0.875000 0.562500
vn -1.0000 0.0000 0.0000
vn 0.0000 0.0000 -1.0000
vn 1.0000 0.0000 0.0000
vn 0.0000 0.0000 1.0000
vn -0.8673 -0.3520 0.3520
vn -0.3520 -0.3520 -0.8673
vn 0.8673 -0.3520 -0.3520
vn 0.3520 -0.3520 0.8673
vn 0.4537 0.0000 0.8912
vn 0.0000 -0.4537 0.8912
vn 0.8912 0.0000 -0.4537
vn 0.8912 -0.4537 0.0000
vn -0.4537 0.0000 -0.8912
vn 0.0000 -0.4537 -0.8912
vn -0.8912 0.0000 0.4537
vn -0.8912 -0.4537 0.0000
vn -0.8912 0.0000 -0.4537
vn -0.8673 -0.3520 -0.3520
vn -0.8912 0.4537 0.0000
vn 0.4537 0.0000 -0.8912
vn 0.3520 -0.3520 -0.8673
vn 0.0000 0.4537 -0.8912
vn 0.8912 0.0000 0.4537
vn 0.8673 -0.3520 0.3520
vn 0.8912 0.4537 0.0000
vn -0.4537 0.0000 0.8912
vn -0.3520 -0.3520 0.8673
vn 0.0000 0.4537 0.8912
vn 0.0000 -1.0000 0.0000
vn 0.0000 1.0000 0.0000
vn -0.8673 0.3520 -0.3520
vn -0.8673 0.3520 0.3520
vn 0.3520 0.3520 -0.8673
vn -0.3520 0.3520 -0.8673
vn 0.8673 0.3520 0.3520
vn 0.8673 0.3520 -0.3520
vn -0.3520 0.3520 0.8673
vn 0.3520 0.3520 0.8673
usemtl inner
s off
f 16/1/1 13/2/1 15/3/1
f 12/4/2 9/5/2 11/6/2
f 8/7/3 5/8/3 7/9/3
f 4/10/4 1/11/4 3/12/4
f 15/3/1 18/13/1 14/14/1
f 14/14/1 17/15/1 16/1/1
f 16/1/1 32/16/1 13/2/1
f 13/2/1 19/17/1 15/3/1
f 15/3/1 14/14/1 16/1/1
f 11/6/2 21/18/2 10/19/2
f 10/19/2 20/20/2 12/4/2
f 12/4/2 31/21/2 9/5/2
f 9/5/2 22/22/2 11/6/2
f 11/6/2 10/19/2 12/4/2
f 7/9/3 24/23/3 6/24/3
f 6/24/3 23/25/3 8/7/3
f 8/7/3 30/26/3 5/8/3
f 5/8/3 25/27/3 7/9/3
f 7/9/3 6/24/3 8/7/3
f 3/12/4 27/28/4 2/29/4
f 2/29/4 26/30/4 4/10/4
f 4/10/4 29/31/4 1/11/4
f 1/11/4 28/32/4 3/12/4
f 3/12/4 2/29/4 4/10/4
usemtl outer
f 55/33/5 68/34/5 108/35/5
f 58/36/6 71/37/6 107/38/6
f 61/39/7 74/40/7 106/41/7
f 64/42/8 54/43/8 105/44/8
f 104/45/9 42/46/9 66/47/9
f 102/48/10 52/49/10 80/50/10
f 101/51/11 50/52/11 62/53/11
f 99/54/12 49/55/12 84/56/12
f 98/57/13 47/58/13 59/59/13
f 96/60/14 46/61/14 88/62/14
f 95/63/15 44/64/15 56/65/15
f 93/66/16 43/67/16 92/68/16
f 42/69/17 93/66/17 90/70/17
f 54/71/18 67/72/18 93/66/18
f 94/73/19 41/74/19 53/75/19
f 66/76/1 53/75/1 33/77/1
f 42/69/17 94/73/17 66/76/17
f 65/78/1 56/65/1 35/79/1
f 41/74/19 95/63/19 65/78/19
f 44/64/20 96/60/20 86/80/20
f 68/34/21 70/81/21 96/60/21
f 97/82/22 45/83/22 57/84/22
f 56/65/2 57/84/2 35/79/2
f 44/64/20 97/82/20 56/65/20
f 69/85/2 59/59/2 39/86/2
f 45/83/22 98/57/22 69/85/22
f 47/58/23 99/54/23 82/87/23
f 71/37/24 73/88/24 99/54/24
f 100/89/25 48/90/25 60/91/25
f 59/59/3 60/91/3 39/86/3
f 47/58/23 100/89/23 59/59/23
f 72/92/3 62/53/3 37/93/3
f 48/90/25 101/51/25 72/92/25
f 50/52/26 102/48/26 78/94/26
f 74/40/27 76/95/27 102/48/27
f 103/96/28 51/97/28 63/98/28
f 62/53/4 63/98/4 37/93/4
f 50/52/26 103/96/26 62/53/26
f 75/99/4 66/47/4 33/100/4
f 51/97/28 104/45/28 75/99/28
f 41/101/29 65/102/29 57/103/29
f 105/44/9 42/46/9 77/104/9
f 52/49/10 105/44/10 80/50/10
f 106/41/11 50/52/11 81/105/11
f 49/55/12 106/41/12 84/56/12
f 107/38/13 47/58/13 85/106/13
f 46/61/14 107/38/14 88/62/14
f 108/35/15 44/64/15 89/107/15
f 43/67/16 108/35/16 92/68/16
f 49/55/30 73/88/30 58/108/30
f 55/33/1 36/109/1 68/34/1
f 58/36/2 40/110/2 71/37/2
f 61/39/3 38/111/3 74/40/3
f 64/42/4 34/112/4 54/43/4
f 104/45/9 77/104/9 42/46/9
f 102/48/10 76/95/10 52/49/10
f 101/51/11 81/105/11 50/52/11
f 99/54/12 73/88/12 49/55/12
f 98/57/13 85/106/13 47/58/13
f 96/60/14 70/81/14 46/61/14
f 95/63/15 89/107/15 44/64/15
f 93/66/16 67/72/16 43/67/16
f 42/69/17 54/71/17 93/66/17
f 54/71/1 34/113/1 67/72/1
f 94/73/19 91/114/19 41/74/19
f 66/76/31 94/73/31 53/75/31
f 42/69/17 90/70/17 94/73/17
f 65/78/32 95/63/32 56/65/32
f 41/74/19 91/114/19 95/63/19
f 44/64/20 68/34/20 96/60/20
f 68/34/2 36/109/2 70/81/2
f 97/82/22 87/115/22 45/83/22
f 56/65/33 97/82/33 57/84/33
f 44/64/20 86/80/20 97/82/20
f 69/85/34 98/57/34 59/59/34
f 45/83/22 87/115/22 98/57/22
f 47/58/23 71/37/23 99/54/23
f 71/37/3 40/110/3 73/88/3
f 100/89/25 83/116/25 48/90/25
f 59/59/35 100/89/35 60/91/35
f 47/58/23 82/87/23 100/89/23
f 72/92/36 101/51/36 62/53/36
f 48/90/25 83/116/25 101/51/25
f 50/52/26 74/40/26 102/48/26
f 74/40/4 38/111/4 76/95/4
f 103/96/28 79/117/28 51/97/28
f 62/53/37 103/96/37 63/98/37
f 50/52/26 78/94/26 103/96/26
f 75/99/38 104/45/38 66/47/38
f 51/97/28 79/117/28 104/45/28
f 48/90/29 72/92/29 63/118/29
f 72/92/29 37/93/29 63/118/29
f 63/118/29 51/119/29 48/90/29
f 51/119/29 75/120/29 53/121/29
f 48/90/29 41/101/29 45/122/29
f 69/123/29 39/86/29 60/91/29
f 60/91/29 48/90/29 45/122/29
f 75/120/29 33/124/29 53/121/29
f 48/90/29 51/119/29 41/101/29
f 45/122/29 69/123/29 60/91/29
f 65/102/29 35/125/29 57/103/29
f 57/103/29 45/122/29 41/101/29
f 51/119/29 53/121/29 41/101/29
f 105/44/9 54/43/9 42/46/9
f 52/49/10 64/42/10 105/44/10
f 106/41/11 74/40/11 50/52/11
f 49/55/12 61/39/12 106/41/12
f 107/38/13 71/37/13 47/58/13
f 46/61/14 58/36/14 107/38/14
f 108/35/15 68/34/15 44/64/15
f 43/67/16 55/33/16 108/35/16
f 43/126/30 67/127/30 64/128/30
f 67/127/30 34/129/30 64/128/30
f 64/128/30 52/130/30 43/126/30
f 52/130/30 76/131/30 61/39/30
f 43/126/30 49/55/30 46/132/30
f 70/133/30 36/134/30 55/135/30
f 55/135/30 43/126/30 46/132/30
f 76/131/30 38/111/30 61/39/30
f 43/126/30 52/130/30 49/55/30
f 46/132/30 70/133/30 55/135/30
f 73/88/30 40/110/30 58/108/30
f 58/108/30 46/132/30 49/55/30
f 52/130/30 61/39/30 49/55/30
