{
  "accessors": [
    {
      "bufferView": 2,
      "componentType": 5126,
      "count": 8416,
      "max": [
        0.31830984354019165,
        0.3183099329471588,
        0.31985723972320557
      ],
      "min": [
        -0.3183099031448364,
        -0.3183099329471588,
        -0.3167625665664673
      ],
      "type": "VEC3"
    },
    {
      "bufferView": 2,
      "byteOffset": 100992,
      "componentType": 5126,
      "count": 8416,
      "max": [
        1.0,
        1.0,
        1.0
      ],
      "min": [
        -1.0,
        -1.0,
        -1.0
      ],
      "type": "VEC3"
    },
    {
      "bufferView": 1,
      "componentType": 5126,
      "count": 8416,
      "max": [
        1.0000001192092896,
        1.0000001192092896
      ],
      "min": [
        0.0,
        0.0
      ],
      "type": "VEC2"
    },
    {
      "bufferView": 0,
      "componentType": 5125,
      "count": 48384,
      "type": "SCALAR"
    },
    {
      "bufferView": 2,
      "byteOffset": 201984,
      "componentType": 5126,
      "count": 2800,
      "max": [
        0.9449080228805542,
        -0.0001032254658639431,
        0.9449080228805542
      ],
      "min": [
        -0.9449080228805542,
        -0.0036471900530159473,
        -0.9449080228805542
      ],
      "type": "VEC3"
    },
    {
      "bufferView": 2,
      "byteOffset": 235584,
      "componentType": 5126,
      "count": 2800,
      "max": [
        0.9995066523551941,
        1.0,
        0.9995066523551941
      ],
      "min": [
        -0.9995066523551941,
        -1.0,
        -0.9995066523551941
      ],
      "type": "VEC3"
    },
    {
      "bufferView": 1,
      "byteOffset": 67328,
      "componentType": 5126,
      "count": 2800,
      "max": [
        0.9747166633605957,
        0.9767166376113892
      ],
      "min": [
        0.025283396244049072,
        0.02728337049484253
      ],
      "type": "VEC2"
    },
    {
      "bufferView": 0,
      "byteOffset": 193536,
      "componentType": 5125,
      "count": 4200,
      "type": "SCALAR"
    }
  ],
  "asset": {
    "extras": {
      "author": "Freemodels (https://sketchfab.com/vivaanarora9)",
      "license": "CC-BY-4.0 (http://creativecommons.org/licenses/by/4.0/)",
      "source": "https://sketchfab.com/3d-models/saturn-17b34b975dc3449da83f2ee7802004f3",
      "title": "Saturn"
    },
    "generator": "Sketchfab-14.8.0",
    "version": "2.0"
  },
  "bufferViews": [
    {
      "buffer": 0,
      "byteLength": 210336,
      "name": "floatBufferViews",
      "target": 34963
    },
    {
      "buffer": 0,
      "byteLength": 89728,
      "byteOffset": 210336,
      "byteStride": 8,
      "name": "floatBufferViews",
      "target": 34962
    },
    {
      "buffer": 0,
      "byteLength": 269184,
      "byteOffset": 300064,
      "byteStride": 12,
      "name": "floatBufferViews",
      "target": 34962
    }
  ],
  "buffers": [
    {
      "byteLength": 569248,
      "uri": "scene.bin"
    }
  ],
  "images": [
    {
      "uri": "textures/Saturn_baseColor.jpeg"
    },
    {
      "uri": "textures/rings_baseColor.jpeg"
    }
  ],
  "materials": [
    {
      "doubleSided": true,
      "name": "Saturn",
      "pbrMetallicRoughness": {
        "baseColorTexture": {
          "index": 0
        },
        "metallicFactor": 0.0,
        "roughnessFactor": 0.5
      }
    },
    {
      "doubleSided": true,
      "name": "rings",
      "pbrMetallicRoughness": {
        "baseColorTexture": {
          "index": 1
        },
        "metallicFactor": 0.0,
        "roughnessFactor": 0.5
      }
    }
  ],
  "meshes": [
    {
      "name": "Object_0",
      "primitives": [
        {
          "attributes": {
            "NORMAL": 1,
            "POSITION": 0,
            "TEXCOORD_0": 2
          },
          "indices": 3,
          "material": 0,
          "mode": 4
        }
      ]
    },
    {
      "name": "Object_1",
      "primitives": [
        {
          "attributes": {
            "NORMAL": 5,
            "POSITION": 4,
            "TEXCOORD_0": 6
          },
          "indices": 7,
          "material": 1,
          "mode": 4
        }
      ]
    }
  ],
  "nodes": [
    {
      "children": [
        1
      ],
      "matrix": [
        1.7578027248382568,
        0.0,
        0.0,
        0.0,
        0.0,
        3.9031061157285426e-16,
        -1.7578027248382568,
        0.0,
        0.0,
        1.7578027248382568,
        3.9031061157285426e-16,
        0.0,
        0.0,
        0.0,
        0.0,
        1.0
      ],
      "name": "Sketchfab_model"
    },
    {
      "children": [
        2
      ],
      "name": "root"
    },
    {
      "children": [
        3
      ],
      "matrix": [
        1.0,
        0.0,
        0.0,
        0.0,
        0.0,
        2.220446049250313e-16,
        1.0,
        0.0,
        0.0,
        -1.0,
        2.220446049250313e-16,
        0.0,
        0.0,
        0.0,
        0.0,
        1.0
      ],
      "name": "GLTF_SceneRootNode"
    },
    {
      "children": [
        4,
        5
      ],
      "matrix": [
        8.6833085943816e-08,
        -0.40673653004966803,
        -0.9135455079650647,
        0.0,
        -3.0872795708791756e-09,
        0.913545507965068,
        -0.4067365300496698,
        0.0,
        0.9999999999999962,
        3.813855850576253e-08,
        7.807026625172853e-08,
        0.0,
        0.0,
        0.0,
        0.0,
        1.0
      ],
      "name": "Saturn_2"
    },
    {
      "mesh": 0,
      "name": "Object_4"
    },
    {
      "mesh": 1,
      "name": "Object_5"
    }
  ],
  "samplers": [
    {
      "magFilter": 9729,
      "minFilter": 9987,
      "wrapS": 10497,
      "wrapT": 10497
    }
  ],
  "scene": 0,
  "scenes": [
    {
      "name": "Sketchfab_Scene",
      "nodes": [
        0
      ]
    }
  ],
  "textures": [
    {
      "sampler": 0,
      "source": 0
    },
    {
      "sampler": 0,
      "source": 1
    }
  ]
}
