{
    "asset" : {
        "generator" : "Khronos glTF Blender I/O v3.2.40",
        "version" : "2.0"
    },
    "scene" : 0,
    "scenes" : [
        {
            "name" : "Scene",
            "nodes" : [
                0
            ]
        }
    ],
    "nodes" : [
        {
            "mesh" : 0,
            "name" : "Cylinder",
            "rotation" : [
                0.7071068286895752,
                0,
                0,
                0.7071067094802856
            ],
            "scale" : [
                2.6726503372192383,
                2.672650098800659,
                2.672650098800659
            ]
        }
    ],
    "materials" : [
        {
            "doubleSided" : true,
            "name" : "Leaves",
            "pbrMetallicRoughness" : {
                "baseColorFactor" : [
                    0.029850000515580177,
                    0.10629100352525711,
                    0.017666000872850418,
                    1
                ],
                "metallicFactor" : 0,
                "roughnessFactor" : 0.690034806728363
            }
        },
        {
            "doubleSided" : true,
            "name" : "Bark.001",
            "pbrMetallicRoughness" : {
                "baseColorFactor" : [
                    0.17620599269866943,
                    0.051816001534461975,
                    0.016054999083280563,
                    1
                ],
                "metallicFactor" : 0,
                "roughnessFactor" : 0.690034806728363
            }
        }
    ],
    "meshes" : [
        {
            "name" : "Cylinder",
            "primitives" : [
                {
                    "attributes" : {
                        "POSITION" : 0,
                        "NORMAL" : 1
                    },
                    "indices" : 2,
                    "material" : 0
                },
                {
                    "attributes" : {
                        "POSITION" : 3,
                        "NORMAL" : 4
                    },
                    "indices" : 5,
                    "material" : 1
                }
            ]
        }
    ],
    "accessors" : [
        {
            "bufferView" : 0,
            "componentType" : 5126,
            "count" : 528,
            "max" : [
                1.1431430578231812,
                1.1562496423721313,
                -0.7839604616165161
            ],
            "min" : [
                -1.1624610424041748,
                -1.1198513507843018,
                -5.129173278808594
            ],
            "type" : "VEC3"
        },
        {
            "bufferView" : 1,
            "componentType" : 5126,
            "count" : 528,
            "type" : "VEC3"
        },
        {
            "bufferView" : 2,
            "componentType" : 5123,
            "count" : 690,
            "type" : "SCALAR"
        },
        {
            "bufferView" : 3,
            "componentType" : 5126,
            "count" : 142,
            "max" : [
                0.36406001448631287,
                0.3812176585197449,
                -0.006532430648803711
            ],
            "min" : [
                -0.4018310010433197,
                -0.37303733825683594,
                -1.181978464126587
            ],
            "type" : "VEC3"
        },
        {
            "bufferView" : 4,
            "componentType" : 5126,
            "count" : 142,
            "type" : "VEC3"
        },
        {
            "bufferView" : 5,
            "componentType" : 5123,
            "count" : 150,
            "type" : "SCALAR"
        }
    ],
    "bufferViews" : [
        {
            "buffer" : 0,
            "byteLength" : 6336,
            "byteOffset" : 0
        },
        {
            "buffer" : 0,
            "byteLength" : 6336,
            "byteOffset" : 6336
        },
        {
            "buffer" : 0,
            "byteLength" : 1380,
            "byteOffset" : 12672
        },
        {
            "buffer" : 0,
            "byteLength" : 1704,
            "byteOffset" : 14052
        },
        {
            "buffer" : 0,
            "byteLength" : 1704,
            "byteOffset" : 15756
        },
        {
            "buffer" : 0,
            "byteLength" : 300,
            "byteOffset" : 17460
        }
    ],
    "buffers" : [
        {
            "byteLength" : 17760,
            "uri" : "LowPolyTree_02.bin"
        }
    ]
}
