# Blender v2.92.0 OBJ File: ''
# www.blender.org
o Sphere
v 0.000000 -0.258819 0.965926
v 0.000000 -0.000000 1.000000
v -0.500000 -0.000000 0.866025
v -0.482963 -0.258819 0.836516
v 0.000000 0.500000 0.866025
v 0.000000 0.707107 0.707107
v -0.353553 0.707107 0.612372
v -0.433013 0.500000 0.750000
v 0.000000 -0.965926 0.258819
v 0.000000 -0.866025 0.500000
v -0.250000 -0.866025 0.433013
v -0.129409 -0.965926 0.224144
v 0.000000 0.965926 0.258819
v 0.000000 1.000000 0.000000
v -0.129409 0.965926 0.224144
v 0.000000 -0.500000 0.866026
v -0.433013 -0.500000 0.750000
v 0.000000 0.258819 0.965926
v -0.482963 0.258819 0.836516
v 0.000000 -1.000000 -0.000000
v 0.000000 0.866025 0.500000
v -0.250000 0.866025 0.433013
v 0.000000 -0.707107 0.707107
v -0.353553 -0.707107 0.612373
v -0.750000 0.500000 0.433013
v -0.836516 0.258819 0.482963
v -0.224144 -0.965926 0.129410
v -0.224144 0.965926 0.129410
v -0.433012 0.866025 0.250000
v -0.750000 -0.500000 0.433013
v -0.612372 -0.707107 0.353554
v -0.866025 -0.000000 0.500000
v -0.612372 0.707107 0.353554
v -0.433013 -0.866025 0.250000
v -0.836516 -0.258819 0.482963
v -0.707106 0.707107 0.000000
v -0.866025 0.500000 0.000000
v -0.500000 -0.866025 -0.000000
v -0.258819 -0.965926 -0.000000
v -0.258819 0.965926 0.000000
v -0.965926 -0.258819 -0.000000
v -0.866025 -0.500000 -0.000000
v -0.965925 0.258819 0.000000
v -0.500000 0.866025 0.000000
v -0.707107 -0.707107 -0.000000
v -1.000000 0.000000 0.000000
v -0.836516 0.258819 -0.482962
v -0.866025 0.000000 -0.499999
v -0.433012 0.866025 -0.249999
v -0.612372 0.707107 -0.353553
v -0.612372 -0.707107 -0.353553
v -0.433012 -0.866025 -0.250000
v -0.836516 -0.258819 -0.482962
v -0.750000 0.500000 -0.433012
v -0.224144 -0.965926 -0.129409
v -0.224144 0.965926 -0.129409
v -0.750000 -0.500000 -0.433012
v -0.433012 0.500000 -0.749999
v -0.482963 0.258819 -0.836516
v -0.129409 -0.965926 -0.224143
v -0.129409 0.965926 -0.224143
v -0.250000 0.866025 -0.433012
v -0.433013 -0.500000 -0.749999
v -0.353553 -0.707107 -0.612372
v -0.500000 0.000000 -0.866025
v -0.353553 0.707107 -0.612372
v -0.250000 -0.866025 -0.433012
v -0.482963 -0.258819 -0.836516
v 0.000000 0.000000 -0.999999
v 0.000000 -0.258819 -0.965925
v 0.000000 0.707107 -0.707106
v 0.000000 0.500000 -0.866025
v 0.000000 -0.866025 -0.499999
v 0.000000 -0.965926 -0.258819
v 0.000000 0.965926 -0.258818
v 0.000000 -0.500000 -0.866025
v 0.000000 0.258819 -0.965925
v 0.000000 0.866025 -0.499999
v 0.000000 -0.707107 -0.707106
v 0.482963 0.258819 -0.836516
v 0.500000 0.000000 -0.866025
v 0.250000 0.866025 -0.433012
v 0.353553 0.707107 -0.612372
v 0.353553 -0.707107 -0.612372
v 0.250000 -0.866025 -0.433012
v 0.482963 -0.258819 -0.836516
v 0.433012 0.500000 -0.749999
v 0.129409 -0.965926 -0.224143
v 0.129409 0.965926 -0.224143
v 0.433013 -0.500000 -0.749999
v 0.836516 -0.258819 -0.482962
v 0.750000 -0.500000 -0.433012
v 0.750000 0.500000 -0.433012
v 0.836516 0.258819 -0.482962
v 0.224144 -0.965926 -0.129409
v 0.224143 0.965926 -0.129409
v 0.433012 0.866025 -0.249999
v 0.612372 -0.707107 -0.353553
v 0.866025 0.000000 -0.499999
v 0.612372 0.707107 -0.353553
v 0.433013 -0.866025 -0.249999
v 0.999999 -0.000000 0.000001
v 0.965925 -0.258819 -0.000000
v 0.707106 0.707107 0.000001
v 0.866025 0.500000 0.000000
v 0.500000 -0.866025 -0.000000
v 0.258819 -0.965926 -0.000000
v 0.258819 0.965926 0.000000
v 0.866025 -0.500000 -0.000000
v 0.965925 0.258819 0.000000
v 0.499999 0.866025 0.000000
v 0.707107 -0.707107 -0.000000
v 0.750000 -0.500000 0.433013
v 0.612372 -0.707107 0.353554
v 0.836516 0.258819 0.482963
v 0.866025 -0.000000 0.500000
v 0.433012 0.866025 0.250000
v 0.612372 0.707107 0.353554
v 0.433012 -0.866025 0.250000
v 0.836516 -0.258819 0.482963
v 0.749999 0.500000 0.433013
v 0.224144 -0.965926 0.129410
v 0.224143 0.965926 0.129410
v 0.129409 0.965926 0.224144
v 0.482963 -0.258819 0.836516
v 0.433012 -0.500000 0.750000
v 0.433012 0.500000 0.750000
v 0.482963 0.258819 0.836516
v 0.129409 -0.965926 0.224144
v 0.250000 0.866025 0.433013
v 0.353553 -0.707107 0.612373
v 0.500000 -0.000000 0.866025
v 0.353553 0.707107 0.612372
v 0.250000 -0.866025 0.433013
vn -0.2568 -0.1262 0.9582
vn -0.2079 0.5955 0.7760
vn -0.1020 -0.9191 0.3807
vn -0.0350 0.9908 0.1304
vn -0.2403 -0.3715 0.8968
vn -0.2403 0.3715 0.8968
vn -0.0350 -0.9908 0.1304
vn -0.1020 0.9191 0.3807
vn -0.2079 -0.5955 0.7760
vn -0.2568 0.1261 0.9582
vn -0.1610 0.7830 0.6008
vn -0.1610 -0.7830 0.6008
vn -0.6565 0.3715 0.6565
vn -0.0955 -0.9908 0.0955
vn -0.2787 0.9191 0.2787
vn -0.5681 -0.5955 0.5681
vn -0.7015 0.1261 0.7015
vn -0.4398 0.7830 0.4398
vn -0.4398 -0.7830 0.4398
vn -0.7015 -0.1262 0.7015
vn -0.5681 0.5955 0.5681
vn -0.2787 -0.9191 0.2787
vn -0.0955 0.9908 0.0955
vn -0.6565 -0.3715 0.6565
vn -0.7760 0.5955 0.2079
vn -0.3807 -0.9191 0.1020
vn -0.1304 0.9908 0.0350
vn -0.8968 -0.3715 0.2403
vn -0.8968 0.3715 0.2403
vn -0.1304 -0.9908 0.0350
vn -0.3807 0.9191 0.1020
vn -0.7760 -0.5955 0.2079
vn -0.9582 0.1262 0.2568
vn -0.6008 0.7830 0.1610
vn -0.6008 -0.7830 0.1610
vn -0.9582 -0.1262 0.2568
vn -0.9582 -0.1261 0.2568
vn -0.9582 0.1262 -0.2568
vn -0.9582 0.1261 -0.2568
vn -0.6008 0.7830 -0.1610
vn -0.6008 -0.7830 -0.1610
vn -0.9582 -0.1261 -0.2568
vn -0.7760 0.5955 -0.2079
vn -0.3807 -0.9191 -0.1020
vn -0.1304 0.9908 -0.0350
vn -0.8968 -0.3715 -0.2403
vn -0.8968 0.3715 -0.2403
vn -0.1304 -0.9908 -0.0350
vn -0.3807 0.9191 -0.1020
vn -0.7760 -0.5955 -0.2079
vn -0.6565 0.3715 -0.6565
vn -0.0955 -0.9908 -0.0955
vn -0.2787 0.9191 -0.2787
vn -0.5681 -0.5955 -0.5681
vn -0.7015 0.1262 -0.7015
vn -0.4398 0.7830 -0.4398
vn -0.4398 -0.7830 -0.4398
vn -0.7015 -0.1261 -0.7015
vn -0.5681 0.5955 -0.5681
vn -0.2787 -0.9191 -0.2787
vn -0.0955 0.9908 -0.0955
vn -0.6565 -0.3715 -0.6565
vn -0.2568 -0.1261 -0.9582
vn -0.2079 0.5955 -0.7760
vn -0.1020 -0.9191 -0.3807
vn -0.0350 0.9908 -0.1304
vn -0.2403 -0.3715 -0.8968
vn -0.2403 0.3715 -0.8968
vn -0.0350 -0.9908 -0.1304
vn -0.1020 0.9191 -0.3807
vn -0.2079 -0.5955 -0.7760
vn -0.2568 0.1262 -0.9582
vn -0.1610 0.7830 -0.6008
vn -0.1610 -0.7830 -0.6008
vn 0.2568 0.1262 -0.9582
vn 0.1610 0.7830 -0.6008
vn 0.1610 -0.7830 -0.6008
vn 0.2568 -0.1261 -0.9582
vn 0.2079 0.5955 -0.7760
vn 0.1020 -0.9191 -0.3807
vn 0.0350 0.9908 -0.1304
vn 0.2403 -0.3715 -0.8968
vn 0.2403 0.3715 -0.8968
vn 0.0350 -0.9908 -0.1304
vn 0.1020 0.9191 -0.3807
vn 0.2079 -0.5955 -0.7760
vn 0.6565 -0.3715 -0.6565
vn 0.6565 0.3715 -0.6565
vn 0.0955 -0.9908 -0.0955
vn 0.2787 0.9191 -0.2787
vn 0.5681 -0.5955 -0.5681
vn 0.7015 0.1262 -0.7015
vn 0.4398 0.7830 -0.4398
vn 0.4398 -0.7830 -0.4398
vn 0.7015 -0.1261 -0.7015
vn 0.5681 0.5955 -0.5681
vn 0.2787 -0.9191 -0.2787
vn 0.0955 0.9908 -0.0955
vn 0.9582 -0.1261 -0.2568
vn 0.7760 0.5955 -0.2079
vn 0.3807 -0.9191 -0.1020
vn 0.1304 0.9908 -0.0350
vn 0.8968 -0.3715 -0.2403
vn 0.8968 0.3715 -0.2403
vn 0.1304 -0.9908 -0.0350
vn 0.3807 0.9191 -0.1020
vn 0.7760 -0.5955 -0.2079
vn 0.9582 0.1262 -0.2568
vn 0.9582 0.1261 -0.2568
vn 0.6008 0.7830 -0.1610
vn 0.6008 -0.7830 -0.1610
vn 0.7760 -0.5955 0.2079
vn 0.9582 0.1262 0.2568
vn 0.6008 0.7830 0.1610
vn 0.6008 -0.7830 0.1610
vn 0.9582 -0.1262 0.2568
vn 0.7760 0.5955 0.2079
vn 0.3807 -0.9191 0.1020
vn 0.1304 0.9908 0.0350
vn 0.8968 -0.3715 0.2403
vn 0.8968 0.3715 0.2403
vn 0.1304 -0.9908 0.0350
vn 0.3807 0.9191 0.1020
vn 0.0955 0.9908 0.0955
vn 0.6565 -0.3715 0.6565
vn 0.6565 0.3715 0.6565
vn 0.0955 -0.9908 0.0955
vn 0.2787 0.9191 0.2787
vn 0.5681 -0.5955 0.5681
vn 0.7015 0.1261 0.7015
vn 0.7015 0.1262 0.7015
vn 0.4398 0.7830 0.4398
vn 0.4398 -0.7830 0.4398
vn 0.7015 -0.1262 0.7015
vn 0.5681 0.5955 0.5681
vn 0.2787 -0.9191 0.2787
vn 0.1610 -0.7830 0.6008
vn 0.2568 -0.1262 0.9582
vn 0.2079 0.5955 0.7760
vn 0.1020 -0.9191 0.3807
vn 0.0350 0.9908 0.1304
vn 0.2403 -0.3715 0.8968
vn 0.2403 0.3715 0.8968
vn 0.0350 -0.9908 0.1304
vn 0.1020 0.9191 0.3807
vn 0.2079 -0.5955 0.7760
vn 0.2568 0.1261 0.9582
vn 0.1610 0.7830 0.6008
vn -0.9582 -0.1262 -0.2568
vn -0.7015 -0.1262 -0.7015
vn -0.2567 -0.1261 -0.9582
vn 0.7015 -0.1262 -0.7015
vn 0.9582 -0.1262 -0.2568
s 1
f 1//1 3//1 4//1
f 5//2 7//2 8//2
f 9//3 11//3 12//3
f 13//4 14//4 15//4
f 16//5 4//5 17//5
f 18//6 8//6 19//6
f 20//7 9//7 12//7
f 21//8 15//8 22//8
f 23//9 17//9 24//9
f 2//10 19//10 3//10
f 6//11 22//11 7//11
f 10//12 24//12 11//12
f 19//13 25//13 26//13
f 20//14 12//14 27//14
f 22//15 28//15 29//15
f 24//16 30//16 31//16
f 3//17 26//17 32//17
f 7//18 29//18 33//18
f 11//19 31//19 34//19
f 4//20 32//20 35//20
f 8//21 33//21 25//21
f 12//22 34//22 27//22
f 15//23 14//23 28//23
f 17//24 35//24 30//24
f 25//25 36//25 37//25
f 27//26 38//26 39//26
f 28//27 14//27 40//27
f 30//28 41//28 42//28
f 26//29 37//29 43//29
f 20//30 27//30 39//30
f 29//31 40//31 44//31
f 31//32 42//32 45//32
f 32//33 43//33 46//33
f 33//34 44//34 36//34
f 34//35 45//35 38//35
f 35//36 46//37 41//37
f 46//38 47//38 48//39
f 36//40 49//40 50//40
f 38//41 51//41 52//41
f 41//42 48//42 53//42
f 37//43 50//43 54//43
f 39//44 52//44 55//44
f 40//45 14//45 56//45
f 42//46 53//46 57//46
f 43//47 54//47 47//47
f 20//48 39//48 55//48
f 44//49 56//49 49//49
f 45//50 57//50 51//50
f 47//51 58//51 59//51
f 20//52 55//52 60//52
f 49//53 61//53 62//53
f 51//54 63//54 64//54
f 48//55 59//55 65//55
f 50//56 62//56 66//56
f 52//57 64//57 67//57
f 53//58 65//58 68//58
f 54//59 66//59 58//59
f 55//60 67//60 60//60
f 56//61 14//61 61//61
f 57//62 68//62 63//62
f 68//63 69//63 70//63
f 58//64 71//64 72//64
f 60//65 73//65 74//65
f 61//66 14//66 75//66
f 63//67 70//67 76//67
f 59//68 72//68 77//68
f 20//69 60//69 74//69
f 62//70 75//70 78//70
f 64//71 76//71 79//71
f 65//72 77//72 69//72
f 66//73 78//73 71//73
f 67//74 79//74 73//74
f 69//75 80//75 81//75
f 71//76 82//76 83//76
f 73//77 84//77 85//77
f 70//78 81//78 86//78
f 72//79 83//79 87//79
f 74//80 85//80 88//80
f 75//81 14//81 89//81
f 76//82 86//82 90//82
f 77//83 87//83 80//83
f 20//84 74//84 88//84
f 78//85 89//85 82//85
f 79//86 90//86 84//86
f 90//87 91//87 92//87
f 80//88 93//88 94//88
f 20//89 88//89 95//89
f 82//90 96//90 97//90
f 84//91 92//91 98//91
f 81//92 94//92 99//92
f 83//93 97//93 100//93
f 85//94 98//94 101//94
f 86//95 99//95 91//95
f 87//96 100//96 93//96
f 88//97 101//97 95//97
f 89//98 14//98 96//98
f 91//99 102//99 103//99
f 93//100 104//100 105//100
f 95//101 106//101 107//101
f 96//102 14//102 108//102
f 92//103 103//103 109//103
f 94//104 105//104 110//104
f 20//105 95//105 107//105
f 97//106 108//106 111//106
f 98//107 109//107 112//107
f 99//108 110//109 102//109
f 100//110 111//110 104//110
f 101//111 112//111 106//111
f 112//112 113//112 114//112
f 102//113 115//113 116//113
f 104//114 117//114 118//114
f 106//115 114//115 119//115
f 103//116 116//116 120//116
f 105//117 118//117 121//117
f 107//118 119//118 122//118
f 108//119 14//119 123//119
f 109//120 120//120 113//120
f 110//121 121//121 115//121
f 20//122 107//122 122//122
f 111//123 123//123 117//123
f 123//124 14//124 124//124
f 113//125 125//125 126//125
f 115//126 127//126 128//126
f 20//127 122//127 129//127
f 117//128 124//128 130//128
f 114//129 126//129 131//129
f 116//130 128//131 132//131
f 118//132 130//132 133//132
f 119//133 131//133 134//133
f 120//134 132//134 125//134
f 121//135 133//135 127//135
f 122//136 134//136 129//136
f 134//137 23//137 10//137
f 125//138 2//138 1//138
f 127//139 6//139 5//139
f 129//140 10//140 9//140
f 124//141 14//141 13//141
f 126//142 1//142 16//142
f 128//143 5//143 18//143
f 20//144 129//144 9//144
f 130//145 13//145 21//145
f 131//146 16//146 23//146
f 132//147 18//147 2//147
f 133//148 21//148 6//148
f 1//1 2//1 3//1
f 5//2 6//2 7//2
f 9//3 10//3 11//3
f 16//5 1//5 4//5
f 18//6 5//6 8//6
f 21//8 13//8 15//8
f 23//9 16//9 17//9
f 2//10 18//10 19//10
f 6//11 21//11 22//11
f 10//12 23//12 24//12
f 19//13 8//13 25//13
f 22//15 15//15 28//15
f 24//16 17//16 30//16
f 3//17 19//17 26//17
f 7//18 22//18 29//18
f 11//19 24//19 31//19
f 4//20 3//20 32//20
f 8//21 7//21 33//21
f 12//22 11//22 34//22
f 17//24 4//24 35//24
f 25//25 33//25 36//25
f 27//26 34//26 38//26
f 30//28 35//28 41//28
f 26//29 25//29 37//29
f 29//31 28//31 40//31
f 31//32 30//32 42//32
f 32//33 26//33 43//33
f 33//34 29//34 44//34
f 34//35 31//35 45//35
f 35//36 32//36 46//37
f 46//38 43//38 47//38
f 36//40 44//40 49//40
f 38//41 45//41 51//41
f 41//42 46//149 48//42
f 37//43 36//43 50//43
f 39//44 38//44 52//44
f 42//46 41//46 53//46
f 43//47 37//47 54//47
f 44//49 40//49 56//49
f 45//50 42//50 57//50
f 47//51 54//51 58//51
f 49//53 56//53 61//53
f 51//54 57//54 63//54
f 48//55 47//55 59//55
f 50//56 49//56 62//56
f 52//57 51//57 64//57
f 53//58 48//150 65//58
f 54//59 50//59 66//59
f 55//60 52//60 67//60
f 57//62 53//62 68//62
f 68//63 65//151 69//63
f 58//64 66//64 71//64
f 60//65 67//65 73//65
f 63//67 68//67 70//67
f 59//68 58//68 72//68
f 62//70 61//70 75//70
f 64//71 63//71 76//71
f 65//72 59//72 77//72
f 66//73 62//73 78//73
f 67//74 64//74 79//74
f 69//75 77//75 80//75
f 71//76 78//76 82//76
f 73//77 79//77 84//77
f 70//78 69//78 81//78
f 72//79 71//79 83//79
f 74//80 73//80 85//80
f 76//82 70//82 86//82
f 77//83 72//83 87//83
f 78//85 75//85 89//85
f 79//86 76//86 90//86
f 90//87 86//87 91//87
f 80//88 87//88 93//88
f 82//90 89//90 96//90
f 84//91 90//91 92//91
f 81//92 80//92 94//92
f 83//93 82//93 97//93
f 85//94 84//94 98//94
f 86//95 81//152 99//95
f 87//96 83//96 100//96
f 88//97 85//97 101//97
f 91//99 99//153 102//99
f 93//100 100//100 104//100
f 95//101 101//101 106//101
f 92//103 91//103 103//103
f 94//104 93//104 105//104
f 97//106 96//106 108//106
f 98//107 92//107 109//107
f 99//108 94//108 110//109
f 100//110 97//110 111//110
f 101//111 98//111 112//111
f 112//112 109//112 113//112
f 102//113 110//113 115//113
f 104//114 111//114 117//114
f 106//115 112//115 114//115
f 103//116 102//116 116//116
f 105//117 104//117 118//117
f 107//118 106//118 119//118
f 109//120 103//120 120//120
f 110//121 105//121 121//121
f 111//123 108//123 123//123
f 113//125 120//125 125//125
f 115//126 121//126 127//126
f 117//128 123//128 124//128
f 114//129 113//129 126//129
f 116//130 115//130 128//131
f 118//132 117//132 130//132
f 119//133 114//133 131//133
f 120//134 116//134 132//134
f 121//135 118//135 133//135
f 122//136 119//136 134//136
f 134//137 131//137 23//137
f 125//138 132//138 2//138
f 127//139 133//139 6//139
f 129//140 134//140 10//140
f 126//142 125//142 1//142
f 128//143 127//143 5//143
f 130//145 124//145 13//145
f 131//146 126//146 16//146
f 132//147 128//147 18//147
f 133//148 130//148 21//148
