# Blender v2.92.0 OBJ File: ''
# www.blender.org
o Sphere
v 0.000000 0.866025 0.500000
v 0.000000 0.500000 0.866025
v 0.000000 0.258819 0.965926
v 0.000000 0.000000 1.000000
v 0.000000 -0.258819 0.965926
v 0.000000 -0.500000 0.866026
v 0.000000 -0.707107 0.707107
v 0.000000 -0.866025 0.500000
v 0.000000 -0.965926 0.258819
v 0.000000 -1.000000 0.000000
v -0.129409 0.965926 0.224144
v -0.250000 0.866025 0.433013
v -0.353553 0.707107 0.612372
v -0.433013 0.500000 0.750000
v -0.482963 0.258819 0.836516
v -0.500000 0.000000 0.866025
v -0.482963 -0.258819 0.836516
v -0.433013 -0.500000 0.750000
v -0.353553 -0.707107 0.612373
v -0.250000 -0.866025 0.433013
v -0.129409 -0.965926 0.224144
v -0.224144 0.965926 0.129410
v -0.433012 0.866025 0.250000
v -0.612372 0.707107 0.353554
v -0.750000 0.500000 0.433013
v -0.836516 0.258819 0.482963
v -0.866025 0.000000 0.500000
v -0.836516 -0.258819 0.482963
v -0.750000 -0.500000 0.433013
v -0.612372 -0.707107 0.353554
v -0.433013 -0.866025 0.250000
v -0.224144 -0.965926 0.129410
v -0.258819 0.965926 0.000000
v -0.500000 0.866025 0.000000
v -0.707106 0.707107 0.000000
v -0.866025 0.500000 0.000000
v -0.965925 0.258819 0.000000
v -1.000000 0.000000 0.000000
v -0.965926 -0.258819 0.000000
v -0.866025 -0.500000 0.000000
v -0.707107 -0.707107 0.000000
v -0.500000 -0.866025 0.000000
v -0.258819 -0.965926 0.000000
v -0.224144 0.965926 -0.129409
v -0.433012 0.866025 -0.249999
v -0.612372 0.707107 -0.353553
v -0.750000 0.500000 -0.433012
v -0.836516 0.258819 -0.482962
v -0.866025 0.000000 -0.499999
v -0.836516 -0.258819 -0.482962
v -0.750000 -0.500000 -0.433012
v -0.612372 -0.707107 -0.353553
v -0.433012 -0.866025 -0.250000
v -0.224144 -0.965926 -0.129409
v -0.129409 0.965926 -0.224143
v -0.250000 0.866025 -0.433012
v -0.353553 0.707107 -0.612372
v -0.433012 0.500000 -0.749999
v -0.482963 0.258819 -0.836516
v -0.500000 0.000000 -0.866025
v -0.482963 -0.258819 -0.836516
v -0.433013 -0.500000 -0.749999
v -0.353553 -0.707107 -0.612372
v -0.250000 -0.866025 -0.433012
v -0.129409 -0.965926 -0.224143
v -0.000000 0.965926 -0.258818
v 0.000000 0.866025 -0.499999
v 0.000000 0.707107 -0.707106
v 0.000000 0.500000 -0.866025
v 0.000000 0.258819 -0.965925
v 0.000000 0.000000 -0.999999
v 0.000000 -0.258819 -0.965925
v 0.000000 -0.500000 -0.866025
v 0.000000 -0.707107 -0.707106
v 0.000000 -0.866025 -0.499999
v -0.000000 -0.965926 -0.258819
v 0.129409 0.965926 -0.224143
v 0.250000 0.866025 -0.433012
v 0.353553 0.707107 -0.612372
v 0.433012 0.500000 -0.749999
v 0.482963 0.258819 -0.836516
v 0.500000 0.000000 -0.866025
v 0.482963 -0.258819 -0.836516
v 0.433013 -0.500000 -0.749999
v 0.353553 -0.707107 -0.612372
v 0.250000 -0.866025 -0.433012
v 0.129409 -0.965926 -0.224143
v 0.224143 0.965926 -0.129409
v 0.433012 0.866025 -0.249999
v 0.612372 0.707107 -0.353553
v 0.750000 0.500000 -0.433012
v 0.836516 0.258819 -0.482962
v 0.866025 0.000000 -0.499999
v 0.836516 -0.258819 -0.482962
v 0.750000 -0.500000 -0.433012
v 0.612372 -0.707107 -0.353553
v 0.433013 -0.866025 -0.249999
v 0.224144 -0.965926 -0.129409
v 0.258819 0.965926 0.000000
v 0.499999 0.866025 0.000000
v 0.707106 0.707107 0.000001
v 0.866025 0.500000 0.000000
v 0.965925 0.258819 0.000000
v 0.999999 0.000000 0.000001
v 0.965925 -0.258819 0.000000
v 0.866025 -0.500000 0.000000
v 0.707107 -0.707107 0.000000
v 0.500000 -0.866025 0.000000
v 0.258819 -0.965926 0.000000
v 0.224143 0.965926 0.129410
v 0.433012 0.866025 0.250000
v 0.612372 0.707107 0.353554
v 0.749999 0.500000 0.433013
v 0.836516 0.258819 0.482963
v 0.866025 0.000000 0.500000
v 0.836516 -0.258819 0.482963
v 0.750000 -0.500000 0.433013
v 0.612372 -0.707107 0.353554
v 0.433012 -0.866025 0.250000
v 0.224144 -0.965926 0.129410
v 0.129409 0.965926 0.224144
v 0.250000 0.866025 0.433013
v 0.353553 0.707107 0.612372
v 0.433012 0.500000 0.750000
v 0.482963 0.258819 0.836516
v 0.500000 0.000000 0.866025
v 0.482963 -0.258819 0.836516
v 0.433012 -0.500000 0.750000
v 0.353553 -0.707107 0.612373
v 0.250000 -0.866025 0.433013
v 0.129409 -0.965926 0.224144
v 0.000000 1.000000 0.000000
v -0.000000 0.965926 0.258819
v -0.000000 0.707107 0.707107
vn -0.2568 -0.1262 0.9582
vn -0.2079 0.5955 0.7760
vn -0.1020 -0.9191 0.3807
vn -0.0350 0.9908 0.1304
vn -0.2403 -0.3715 0.8968
vn -0.2403 0.3715 0.8968
vn -0.0350 -0.9908 0.1304
vn -0.1020 0.9191 0.3807
vn -0.2079 -0.5955 0.7760
vn -0.2568 0.1262 0.9582
vn -0.1610 0.7830 0.6008
vn -0.1610 -0.7830 0.6008
vn -0.6565 0.3715 0.6565
vn -0.0955 -0.9908 0.0955
vn -0.2787 0.9191 0.2787
vn -0.5681 -0.5955 0.5681
vn -0.7015 0.1262 0.7015
vn -0.4398 0.7830 0.4398
vn -0.4398 -0.7830 0.4398
vn -0.7015 -0.1262 0.7015
vn -0.5681 0.5955 0.5681
vn -0.2787 -0.9191 0.2787
vn -0.0955 0.9908 0.0955
vn -0.6565 -0.3715 0.6565
vn -0.7760 0.5955 0.2079
vn -0.3807 -0.9191 0.1020
vn -0.1304 0.9908 0.0350
vn -0.8968 -0.3715 0.2403
vn -0.8968 0.3715 0.2403
vn -0.1304 -0.9908 0.0350
vn -0.3807 0.9191 0.1020
vn -0.7760 -0.5955 0.2079
vn -0.9582 0.1262 0.2568
vn -0.6008 0.7830 0.1610
vn -0.6008 -0.7830 0.1610
vn -0.9582 -0.1262 0.2568
vn -0.9582 0.1262 -0.2568
vn -0.6008 0.7830 -0.1610
vn -0.6008 -0.7830 -0.1610
vn -0.9582 -0.1261 -0.2568
vn -0.7760 0.5955 -0.2079
vn -0.3807 -0.9191 -0.1020
vn -0.1304 0.9908 -0.0350
vn -0.8968 -0.3715 -0.2403
vn -0.8968 0.3715 -0.2403
vn -0.1304 -0.9908 -0.0350
vn -0.3807 0.9191 -0.1020
vn -0.7760 -0.5955 -0.2079
vn -0.6565 0.3715 -0.6565
vn -0.0955 -0.9908 -0.0955
vn -0.2787 0.9191 -0.2787
vn -0.5681 -0.5955 -0.5681
vn -0.7015 0.1262 -0.7015
vn -0.4398 0.7830 -0.4398
vn -0.4398 -0.7830 -0.4398
vn -0.7015 -0.1262 -0.7015
vn -0.5681 0.5955 -0.5681
vn -0.2787 -0.9191 -0.2787
vn -0.0955 0.9908 -0.0955
vn -0.6565 -0.3715 -0.6565
vn -0.2568 -0.1262 -0.9582
vn -0.2079 0.5955 -0.7760
vn -0.1020 -0.9191 -0.3807
vn -0.0350 0.9908 -0.1304
vn -0.2403 -0.3715 -0.8968
vn -0.2403 0.3715 -0.8968
vn -0.0350 -0.9908 -0.1304
vn -0.1020 0.9191 -0.3807
vn -0.2079 -0.5955 -0.7760
vn -0.2568 0.1262 -0.9582
vn -0.1610 0.7830 -0.6008
vn -0.1610 -0.7830 -0.6008
vn 0.2568 0.1262 -0.9582
vn 0.1610 0.7830 -0.6008
vn 0.1610 -0.7830 -0.6008
vn 0.2568 -0.1262 -0.9582
vn 0.2079 0.5955 -0.7760
vn 0.1020 -0.9191 -0.3807
vn 0.0350 0.9908 -0.1304
vn 0.2403 -0.3715 -0.8968
vn 0.2403 0.3715 -0.8968
vn 0.0350 -0.9908 -0.1304
vn 0.1020 0.9191 -0.3807
vn 0.2079 -0.5955 -0.7760
vn 0.6565 -0.3715 -0.6565
vn 0.6565 0.3715 -0.6565
vn 0.0955 -0.9908 -0.0955
vn 0.2787 0.9191 -0.2787
vn 0.5681 -0.5955 -0.5681
vn 0.7015 0.1262 -0.7015
vn 0.4398 0.7830 -0.4398
vn 0.4398 -0.7830 -0.4398
vn 0.7015 -0.1262 -0.7015
vn 0.5681 0.5955 -0.5681
vn 0.2787 -0.9191 -0.2787
vn 0.0955 0.9908 -0.0955
vn 0.9582 -0.1262 -0.2568
vn 0.7760 0.5955 -0.2079
vn 0.3807 -0.9191 -0.1020
vn 0.1304 0.9908 -0.0350
vn 0.8968 -0.3715 -0.2403
vn 0.8968 0.3715 -0.2403
vn 0.1304 -0.9908 -0.0350
vn 0.3807 0.9191 -0.1020
vn 0.7760 -0.5955 -0.2079
vn 0.9582 0.1262 -0.2568
vn 0.6008 0.7830 -0.1610
vn 0.6008 -0.7830 -0.1610
vn 0.7760 -0.5955 0.2079
vn 0.9582 0.1262 0.2568
vn 0.6008 0.7830 0.1610
vn 0.6008 -0.7830 0.1610
vn 0.9582 -0.1262 0.2568
vn 0.7760 0.5955 0.2079
vn 0.3807 -0.9191 0.1020
vn 0.1304 0.9908 0.0350
vn 0.8968 -0.3715 0.2403
vn 0.8968 0.3715 0.2403
vn 0.1304 -0.9908 0.0350
vn 0.3807 0.9191 0.1020
vn 0.0955 0.9908 0.0955
vn 0.6565 -0.3715 0.6565
vn 0.6565 0.3715 0.6565
vn 0.0955 -0.9908 0.0955
vn 0.2787 0.9191 0.2787
vn 0.5681 -0.5955 0.5681
vn 0.7015 0.1262 0.7015
vn 0.4398 0.7830 0.4398
vn 0.4398 -0.7830 0.4398
vn 0.7015 -0.1262 0.7015
vn 0.5681 0.5955 0.5681
vn 0.2787 -0.9191 0.2787
vn 0.1610 -0.7830 0.6008
vn 0.2568 -0.1262 0.9582
vn 0.2079 0.5955 0.7760
vn 0.1020 -0.9191 0.3807
vn 0.0350 0.9908 0.1304
vn 0.2403 -0.3715 0.8968
vn 0.2403 0.3715 0.8968
vn 0.0350 -0.9908 0.1304
vn 0.1020 0.9191 0.3807
vn 0.2079 -0.5955 0.7760
vn 0.2568 0.1262 0.9582
vn 0.1610 0.7830 0.6008
s off
f 5//1 4//1 16//1 17//1
f 2//2 134//2 13//2 14//2
f 9//3 8//3 20//3 21//3
f 133//4 132//4 11//4
f 6//5 5//5 17//5 18//5
f 3//6 2//6 14//6 15//6
f 10//7 9//7 21//7
f 1//8 133//8 11//8 12//8
f 7//9 6//9 18//9 19//9
f 4//10 3//10 15//10 16//10
f 134//11 1//11 12//11 13//11
f 8//12 7//12 19//12 20//12
f 15//13 14//13 25//13 26//13
f 10//14 21//14 32//14
f 12//15 11//15 22//15 23//15
f 19//16 18//16 29//16 30//16
f 16//17 15//17 26//17 27//17
f 13//18 12//18 23//18 24//18
f 20//19 19//19 30//19 31//19
f 17//20 16//20 27//20 28//20
f 14//21 13//21 24//21 25//21
f 21//22 20//22 31//22 32//22
f 11//23 132//23 22//23
f 18//24 17//24 28//24 29//24
f 25//25 24//25 35//25 36//25
f 32//26 31//26 42//26 43//26
f 22//27 132//27 33//27
f 29//28 28//28 39//28 40//28
f 26//29 25//29 36//29 37//29
f 10//30 32//30 43//30
f 23//31 22//31 33//31 34//31
f 30//32 29//32 40//32 41//32
f 27//33 26//33 37//33 38//33
f 24//34 23//34 34//34 35//34
f 31//35 30//35 41//35 42//35
f 28//36 27//36 38//36 39//36
f 38//37 37//37 48//37 49//37
f 35//38 34//38 45//38 46//38
f 42//39 41//39 52//39 53//39
f 39//40 38//40 49//40 50//40
f 36//41 35//41 46//41 47//41
f 43//42 42//42 53//42 54//42
f 33//43 132//43 44//43
f 40//44 39//44 50//44 51//44
f 37//45 36//45 47//45 48//45
f 10//46 43//46 54//46
f 34//47 33//47 44//47 45//47
f 41//48 40//48 51//48 52//48
f 48//49 47//49 58//49 59//49
f 10//50 54//50 65//50
f 45//51 44//51 55//51 56//51
f 52//52 51//52 62//52 63//52
f 49//53 48//53 59//53 60//53
f 46//54 45//54 56//54 57//54
f 53//55 52//55 63//55 64//55
f 50//56 49//56 60//56 61//56
f 47//57 46//57 57//57 58//57
f 54//58 53//58 64//58 65//58
f 44//59 132//59 55//59
f 51//60 50//60 61//60 62//60
f 61//61 60//61 71//61 72//61
f 58//62 57//62 68//62 69//62
f 65//63 64//63 75//63 76//63
f 55//64 132//64 66//64
f 62//65 61//65 72//65 73//65
f 59//66 58//66 69//66 70//66
f 10//67 65//67 76//67
f 56//68 55//68 66//68 67//68
f 63//69 62//69 73//69 74//69
f 60//70 59//70 70//70 71//70
f 57//71 56//71 67//71 68//71
f 64//72 63//72 74//72 75//72
f 71//73 70//73 81//73 82//73
f 68//74 67//74 78//74 79//74
f 75//75 74//75 85//75 86//75
f 72//76 71//76 82//76 83//76
f 69//77 68//77 79//77 80//77
f 76//78 75//78 86//78 87//78
f 66//79 132//79 77//79
f 73//80 72//80 83//80 84//80
f 70//81 69//81 80//81 81//81
f 10//82 76//82 87//82
f 67//83 66//83 77//83 78//83
f 74//84 73//84 84//84 85//84
f 84//85 83//85 94//85 95//85
f 81//86 80//86 91//86 92//86
f 10//87 87//87 98//87
f 78//88 77//88 88//88 89//88
f 85//89 84//89 95//89 96//89
f 82//90 81//90 92//90 93//90
f 79//91 78//91 89//91 90//91
f 86//92 85//92 96//92 97//92
f 83//93 82//93 93//93 94//93
f 80//94 79//94 90//94 91//94
f 87//95 86//95 97//95 98//95
f 77//96 132//96 88//96
f 94//97 93//97 104//97 105//97
f 91//98 90//98 101//98 102//98
f 98//99 97//99 108//99 109//99
f 88//100 132//100 99//100
f 95//101 94//101 105//101 106//101
f 92//102 91//102 102//102 103//102
f 10//103 98//103 109//103
f 89//104 88//104 99//104 100//104
f 96//105 95//105 106//105 107//105
f 93//106 92//106 103//106 104//106
f 90//107 89//107 100//107 101//107
f 97//108 96//108 107//108 108//108
f 107//109 106//109 117//109 118//109
f 104//110 103//110 114//110 115//110
f 101//111 100//111 111//111 112//111
f 108//112 107//112 118//112 119//112
f 105//113 104//113 115//113 116//113
f 102//114 101//114 112//114 113//114
f 109//115 108//115 119//115 120//115
f 99//116 132//116 110//116
f 106//117 105//117 116//117 117//117
f 103//118 102//118 113//118 114//118
f 10//119 109//119 120//119
f 100//120 99//120 110//120 111//120
f 110//121 132//121 121//121
f 117//122 116//122 127//122 128//122
f 114//123 113//123 124//123 125//123
f 10//124 120//124 131//124
f 111//125 110//125 121//125 122//125
f 118//126 117//126 128//126 129//126
f 115//127 114//127 125//127 126//127
f 112//128 111//128 122//128 123//128
f 119//129 118//129 129//129 130//129
f 116//130 115//130 126//130 127//130
f 113//131 112//131 123//131 124//131
f 120//132 119//132 130//132 131//132
f 130//133 129//133 7//133 8//133
f 127//134 126//134 4//134 5//134
f 124//135 123//135 134//135 2//135
f 131//136 130//136 8//136 9//136
f 121//137 132//137 133//137
f 128//138 127//138 5//138 6//138
f 125//139 124//139 2//139 3//139
f 10//140 131//140 9//140
f 122//141 121//141 133//141 1//141
f 129//142 128//142 6//142 7//142
f 126//143 125//143 3//143 4//143
f 123//144 122//144 1//144 134//144
